PathFileType	4	(X/Y/Z)	C:\Git\research_data\torsion_deformities_healthy_kinematics\simulations\P03\pre\Static01\marker_experimental_HJC.trc
DataRate	CameraRate	NumFrames	NumMarkers	Units	OrigDataRate	OrigDataStartFrame	OrigNumFrames
150	150	8	38	mm	150	38	150
Frame#	Time	C7			T10			CLAV			STRN			RBAK			SACR			LASI			RASI			LT1			LT2			LT3			LS1			LS2			LS3			LHEE			LTOE			RT1			RT2			RT3			RS1			RS2			RS3			RHEE			RTOE			LKNE			LKNM			LANK			LANM			RKNM			RKNE			RANM			RANK			LKJC			RKJC			LAJC			RAJC			LHJC			RHJC		
		X1	Y1	Z1	X2	Y2	Z2	X3	Y3	Z3	X4	Y4	Z4	X5	Y5	Z5	X6	Y6	Z6	X7	Y7	Z7	X8	Y8	Z8	X9	Y9	Z9	X10	Y10	Z10	X11	Y11	Z11	X12	Y12	Z12	X13	Y13	Z13	X14	Y14	Z14	X15	Y15	Z15	X16	Y16	Z16	X17	Y17	Z17	X18	Y18	Z18	X19	Y19	Z19	X20	Y20	Z20	X21	Y21	Z21	X22	Y22	Z22	X23	Y23	Z23	X24	Y24	Z24	X25	Y25	Z25	X26	Y26	Z26	X27	Y27	Z27	X28	Y28	Z28	X29	Y29	Z29	X30	Y30	Z30	X31	Y31	Z31	X32	Y32	Z32	X33	Y33	Z33	X34	Y34	Z34	X35	Y35	Z35	X36	Y36	Z36	X37	Y37	Z37	X38	Y38	Z38	

38	0.246667	-963.690613	1274.475220	-443.150604	-914.524658	1095.188477	-445.182922	-1094.669312	1213.159912	-427.156464	-1127.307129	1160.300415	-422.601898	-933.252930	1177.685425	-542.186829	-916.281494	875.678101	-430.417084	-1071.896973	870.770874	-278.216827	-1124.898193	879.237732	-520.928162	-1127.993652	586.133667	-243.912323	-1079.067505	474.475128	-231.994156	-1202.903687	531.708435	-277.195404	-1033.187988	217.188309	-282.760773	-950.363159	148.315979	-342.052490	-1062.418945	131.875214	-254.492096	-973.621948	41.745056	-367.714752	-1083.315918	41.360535	-262.381958	-1132.925171	608.161804	-592.430298	-1055.876709	510.383850	-586.606689	-1197.833130	534.817688	-582.518372	-1088.626953	266.849731	-587.345154	-981.350708	217.039581	-562.326538	-1116.626465	176.695984	-582.445496	-981.830261	44.955051	-500.256683	-1123.359985	41.764217	-570.595642	-1147.940674	432.927277	-268.745453	-1163.378662	421.617737	-368.066681	-994.182007	49.616470	-304.675507	-1044.756226	47.176437	-356.899078	-1164.300049	424.627838	-466.138977	-1164.586182	440.211182	-568.692932	-1062.673218	52.907597	-490.773285	-1019.060974	47.593155	-552.325195	-1155.659668	427.272491	-318.406067	-1164.443115	432.419495	-517.415955	-1019.469116	48.396454	-330.787292	-1040.867065	50.250378	-521.549194	-1026.549186	786.824874	-326.850245	-1064.643006	792.910299	-501.295316	
39	0.253333	-963.759216	1274.453003	-443.215607	-914.510803	1095.195801	-445.237518	-1094.678101	1213.117065	-427.202484	-1127.309326	1160.242798	-422.643555	-933.247375	1177.671753	-542.229980	-916.216187	875.638794	-430.498871	-1071.817749	870.748474	-278.283386	-1124.831421	879.190857	-521.001404	-1127.942383	586.135193	-243.948883	-1079.052246	474.471375	-232.011276	-1202.864258	531.718750	-277.215485	-1033.176025	217.189468	-282.782593	-950.361206	148.305573	-342.072083	-1062.408569	131.878265	-254.500824	-973.618286	41.737183	-367.720825	-1083.318359	41.374439	-262.386444	-1132.887085	608.135498	-592.498230	-1055.842896	510.339813	-586.652588	-1197.793335	534.809021	-582.575317	-1088.636230	266.833649	-587.373474	-981.371826	217.011627	-562.370178	-1116.633911	176.679840	-582.467285	-981.829529	44.952019	-500.259583	-1123.359497	41.760857	-570.595398	-1147.888672	432.918518	-268.782318	-1163.383057	421.617859	-368.081116	-994.182739	49.613834	-304.686829	-1044.761108	47.175941	-356.907776	-1164.307617	424.623993	-466.188782	-1164.575439	440.194397	-568.737061	-1062.665649	52.900417	-490.773773	-1019.049438	47.588993	-552.321838	-1155.635864	427.268188	-318.431702	-1164.441528	432.409210	-517.462891	-1019.471863	48.394890	-330.797302	-1040.857544	50.244705	-521.547791	-1026.474480	786.794559	-326.911271	-1064.577144	792.862376	-501.360666	
40	0.260000	-963.823303	1274.434082	-443.276367	-914.499817	1095.205811	-445.292542	-1094.692505	1213.069214	-427.252594	-1127.313843	1160.177490	-422.687408	-933.246216	1177.666260	-542.276062	-916.158508	875.593018	-430.577118	-1071.740723	870.729675	-278.351898	-1124.761475	879.142578	-521.081055	-1127.887573	586.137695	-243.975067	-1079.027588	474.467163	-232.019745	-1202.821411	531.725464	-277.223450	-1033.162354	217.190384	-282.793427	-950.359375	148.296555	-342.084473	-1062.397705	131.878983	-254.505219	-973.611572	41.731869	-367.722290	-1083.320801	41.384193	-262.388580	-1132.840576	608.113770	-592.568726	-1055.804688	510.299591	-586.695129	-1197.749634	534.802612	-582.637024	-1088.639893	266.819794	-587.402588	-981.385315	216.989883	-562.403259	-1116.636841	176.665924	-582.490417	-981.828735	44.948982	-500.261688	-1123.360352	41.758575	-570.595215	-1147.798828	432.895538	-268.827423	-1163.391357	421.615814	-368.089844	-994.182800	49.611385	-304.691803	-1044.765991	47.176315	-356.912933	-1164.306763	424.624756	-466.240234	-1164.553955	440.182220	-568.786072	-1062.660034	52.895264	-490.774597	-1019.035461	47.585014	-552.318726	-1155.595093	427.255676	-318.458649	-1164.430420	432.403473	-517.513184	-1019.474365	48.393848	-330.802368	-1040.847778	50.240139	-521.546692	-1026.406155	786.763896	-326.970810	-1064.513765	792.810502	-501.427559	
41	0.266667	-963.881165	1274.420654	-443.332611	-914.491211	1095.220093	-445.348602	-1094.711792	1213.018555	-427.306305	-1127.321777	1160.106812	-422.734985	-933.252136	1177.669556	-542.324585	-916.106506	875.544861	-430.649658	-1071.665283	870.715637	-278.419922	-1124.688354	879.095581	-521.165344	-1127.830566	586.141418	-243.992126	-1078.994507	474.464172	-232.021088	-1202.776001	531.730408	-277.221100	-1033.148071	217.190689	-282.792908	-950.357239	148.289108	-342.089020	-1062.389771	131.877808	-254.506729	-973.604126	41.729988	-367.719910	-1083.322754	41.390549	-262.388916	-1132.785522	608.096863	-592.641174	-1055.763184	510.264252	-586.733887	-1197.701904	534.798828	-582.706360	-1088.638916	266.808960	-587.432678	-981.391663	216.974518	-562.428101	-1116.635010	176.653885	-582.513245	-981.827759	44.946182	-500.263092	-1123.362061	41.757389	-570.595642	-1147.725586	432.884460	-268.852570	-1163.386963	421.612976	-368.088745	-994.183838	49.609936	-304.690887	-1044.770508	47.177402	-356.915039	-1164.297974	424.628387	-466.292450	-1164.522461	440.174591	-568.840088	-1062.656738	52.892746	-490.775818	-1019.021301	47.581398	-552.316895	-1155.556274	427.248718	-318.470642	-1164.410278	432.401489	-517.566284	-1019.477112	48.393669	-330.802979	-1040.839111	50.237072	-521.546387	-1026.342439	786.734692	-327.027428	-1064.451524	792.757580	-501.494991	
42	0.273333	-963.932190	1274.414307	-443.385345	-914.484924	1095.239258	-445.407135	-1094.733643	1212.968140	-427.362488	-1127.333008	1160.033081	-422.788391	-933.267212	1177.680786	-542.375305	-916.057007	875.498901	-430.715607	-1071.592163	870.706787	-278.484711	-1124.612061	879.052429	-521.251648	-1127.773804	586.146362	-244.001480	-1078.955566	474.464569	-232.017334	-1202.729248	531.735840	-277.210419	-1033.134033	217.189957	-282.781952	-950.354248	148.283859	-342.086334	-1062.386353	131.875778	-254.505951	-973.597717	41.731667	-367.714813	-1083.323853	41.394905	-262.388062	-1132.723022	608.084412	-592.713989	-1055.717896	510.235229	-586.768250	-1197.649658	534.797485	-582.783997	-1088.634155	266.801422	-587.463379	-981.390808	216.964310	-562.448303	-1116.628174	176.642975	-582.534424	-981.826721	44.943722	-500.264008	-1123.363892	41.757011	-570.596863	-1147.684082	432.893158	-268.850891	-1163.369507	421.612213	-368.079987	-994.186157	49.609444	-304.685608	-1044.774414	47.179058	-356.914917	-1164.282349	424.632813	-466.343597	-1164.483154	440.171021	-568.897827	-1062.655518	52.892937	-490.777496	-1019.009338	47.578098	-552.316956	-1155.526733	427.252686	-318.465454	-1164.382690	432.401917	-517.620667	-1019.480225	48.394253	-330.800262	-1040.832397	50.235516	-521.547180	-1026.281787	786.708607	-327.079420	-1064.388351	792.706803	-501.561348	
43	0.280000	-963.977966	1274.415405	-443.436615	-914.481689	1095.262695	-445.469299	-1094.756348	1212.920532	-427.419373	-1127.347046	1159.958008	-422.848236	-933.290955	1177.699097	-542.428040	-916.007080	875.459656	-430.774719	-1071.523560	870.702942	-278.544037	-1124.532715	879.015015	-521.336670	-1127.719116	586.152588	-244.004913	-1078.914795	474.469727	-232.010590	-1202.682007	531.743286	-277.193939	-1033.121338	217.188065	-282.762756	-950.350098	148.281281	-342.077759	-1062.387695	131.874023	-254.503082	-973.592651	41.736206	-367.707886	-1083.323975	41.398701	-262.386719	-1132.655151	608.075317	-592.784546	-1055.668335	510.213409	-586.797852	-1197.592407	534.797791	-582.867126	-1088.626831	266.796967	-587.494202	-981.382202	216.957535	-562.466553	-1116.617065	176.632675	-582.553955	-981.825684	44.941578	-500.264557	-1123.364990	41.756985	-570.598938	-1147.665039	432.915894	-268.831635	-1163.341553	421.612946	-368.065582	-994.189453	49.609180	-304.678070	-1044.777466	47.181190	-356.913330	-1164.262207	424.636902	-466.393158	-1164.438599	440.171051	-568.957275	-1062.655640	52.895542	-490.779816	-1019.001160	47.574928	-552.319031	-1155.503296	427.264435	-318.448608	-1164.350342	432.403992	-517.675232	-1019.483459	48.395187	-330.795715	-1040.828369	50.235233	-521.549377	-1026.223462	786.687271	-327.125235	-1064.322034	792.661298	-501.624387	
44	0.286667	-964.021301	1274.422852	-443.488220	-914.482422	1095.289307	-445.535248	-1094.780151	1212.877808	-427.474976	-1127.363159	1159.883301	-422.913147	-933.319885	1177.722778	-542.481873	-915.955200	875.430542	-430.826721	-1071.461792	870.702637	-278.597015	-1124.451050	878.984680	-521.417358	-1127.667114	586.160400	-244.004288	-1078.876099	474.479279	-232.002182	-1202.634888	531.752808	-277.174713	-1033.110718	217.185287	-282.738342	-950.344666	148.281204	-342.064850	-1062.393066	131.873245	-254.498413	-973.588135	41.742111	-367.699585	-1083.323608	41.402885	-262.385132	-1132.585205	608.068604	-592.850220	-1055.614258	510.197906	-586.822754	-1197.532593	534.799438	-582.951416	-1088.617676	266.795044	-587.524231	-981.366882	216.952377	-562.484253	-1116.603149	176.623215	-582.572815	-981.824646	44.939610	-500.264893	-1123.364502	41.756760	-570.601624	-1147.658203	432.945526	-268.804535	-1163.302979	421.612396	-368.047058	-994.193298	49.608467	-304.670563	-1044.779541	47.183849	-356.910767	-1164.240967	424.641510	-466.441223	-1164.391968	440.174011	-569.015991	-1062.656250	52.899975	-490.782837	-1018.997131	47.571632	-552.322754	-1155.480591	427.278961	-318.425812	-1164.316406	432.407776	-517.728638	-1019.486450	48.396160	-330.790680	-1040.826660	50.235806	-521.552795	-1026.167330	786.671394	-327.164808	-1064.251329	792.623795	-501.682625	
45	0.293333	-964.065918	1274.434570	-443.540985	-914.486816	1095.317627	-445.603455	-1094.806030	1212.840210	-427.528168	-1127.380981	1159.811890	-422.980377	-933.347839	1177.750610	-542.534485	-915.901245	875.413452	-430.870941	-1071.406738	870.704346	-278.643463	-1124.367920	878.961670	-521.491089	-1127.618042	586.169617	-244.001373	-1078.840820	474.491058	-231.993088	-1202.588135	531.763428	-277.155396	-1033.102417	217.182144	-282.712250	-950.338074	148.282684	-342.049164	-1062.400879	131.873550	-254.492172	-973.583191	41.747448	-367.690277	-1083.323242	41.407398	-262.383179	-1132.515991	608.062988	-592.908875	-1055.557495	510.186401	-586.843628	-1197.474487	534.802185	-583.032776	-1088.606934	266.794830	-587.552429	-981.348816	216.946823	-562.502625	-1116.587891	176.615372	-582.592102	-981.823608	44.937614	-500.265045	-1123.362061	41.755772	-570.604553	-1147.658813	432.977509	-268.773956	-1163.262451	421.610474	-368.029327	-994.197205	49.607048	-304.664459	-1044.780518	47.187088	-356.907501	-1164.222900	424.648865	-466.487610	-1164.345947	440.179016	-569.072266	-1062.656738	52.905273	-490.786346	-1018.996765	47.567955	-552.327698	-1155.460571	427.293976	-318.401642	-1164.284424	432.413940	-517.779968	-1019.488831	48.397068	-330.785980	-1040.826782	50.236614	-521.557007	-1026.112283	786.661123	-327.198726	-1064.175855	792.595720	-501.735015	
